<svg xmlns="http://www.w3.org/2000/svg" width="3309" height="2339" viewBox="0 0 3309 2339"><path d="M 150 122 L 150 221 L 282 221 L 284 122 Z" fill="rgba(0,0,0,0.0)" stroke="rgba(255,0,0,0.8)" stroke-width="2" /><path d="M 150 270 L 150 361 L 273 360 L 277 351 L 290 351 L 294 358 L 373 359 L 373 318 L 337 316 L 332 302 L 306 302 L 304 270 Z" fill="rgba(0,0,0,0.0)" stroke="rgba(255,0,0,0.8)" stroke-width="2" /><path d="M 374 318 L 374 361 L 437 360 L 437 318 Z" fill="rgba(0,0,0,0.0)" stroke="rgba(255,0,0,0.8)" stroke-width="2" /><path d="M 250 222 L 250 269 L 301 269 L 301 266 L 304 262 L 305 222 Z" fill="rgba(0,0,0,0.0)" stroke="rgba(255,0,0,0.8)" stroke-width="2" /><path d="M 150 270 L 150 361 L 273 360 L 277 350 L 309 352 L 309 312 L 298 309 L 304 301 L 304 270 Z" fill="rgba(0,0,0,0.0)" stroke="rgba(255,0,0,0.8)" stroke-width="2" /><path d="M 286 118 L 286 219 L 307 221 L 307 301 L 337 301 L 337 197 L 380 184 L 455 194 L 466 220 L 459 257 L 442 278 L 413 288 L 412 301 L 471 301 L 471 118 Z" fill="rgba(0,0,0,0.0)" stroke="rgba(255,0,0,0.8)" stroke-width="2" /><path d="M 438 318 L 438 360 L 442 360 L 443 361 L 468 361 L 469 360 L 473 360 L 473 318 Z" fill="rgba(0,0,0,0.0)" stroke="rgba(255,0,0,0.8)" stroke-width="2" /><path d="M 222 226 L 222 269 L 249 269 L 249 226 Z" fill="rgba(0,0,0,0.0)" stroke="rgba(255,0,0,0.8)" stroke-width="2" /><path d="M 154 226 L 154 267 L 187 269 L 188 273 L 202 273 L 203 269 L 220 266 L 219 226 Z" fill="rgba(0,0,0,0.0)" stroke="rgba(255,0,0,0.8)" stroke-width="2" /><path d="M 154 222 L 154 261 L 221 261 L 221 222 Z" fill="rgba(0,0,0,0.0)" stroke="rgba(255,0,0,0.8)" stroke-width="2" /><path d="M 373 322 L 373 325 L 372 326 L 372 338 L 371 339 L 371 349 L 408 349 L 408 345 L 411 342 L 407 341 L 404 339 L 397 339 L 393 336 L 391 336 L 386 331 L 382 330 L 378 326 L 375 321 Z" fill="rgba(0,0,0,0.0)" stroke="rgba(255,0,0,0.8)" stroke-width="2" /><path d="M 338 186 L 338 313 L 433 315 L 437 349 L 473 349 L 473 186 Z" fill="rgba(0,0,0,0.0)" stroke="rgba(255,0,0,0.8)" stroke-width="2" /></svg>